<svg xmlns="http://www.w3.org/2000/svg" xmlns:xlink="http://www.w3.org/1999/xlink" width="1536" height="640" viewBox="0 0 1536 640"><svg x="112" y="78" width="414.832" height="89.34" viewBox="0 -949 10370.8 2233.5"><g stroke="#eee9d5" fill="#eee9d5" stroke-width="0" transform="scale(1,-1)"><g data-mml-node="math"><g data-mml-node="TeXAtom" data-mjx-texclass="ORD"><g data-mml-node="mi"><path data-c="52" d="M37 475Q19 475 19 487Q19 503 35 530T83 589T180 647T327 682H374Q387 682 417 682T464 683Q519 683 559 679T642 663T708 625T731 557Q731 481 668 411T504 300Q506 296 512 286T528 257T553 202Q594 105 611 82Q635 47 665 47Q708 47 742 93Q758 113 786 128Q804 136 819 137Q837 137 837 125Q837 115 818 92T767 43T687 -2T589 -22Q549 -22 517 22T467 120T422 221T362 273Q346 273 346 287Q348 301 373 320T436 342Q437 342 446 343T462 345T481 348T504 353T527 362T553 375T577 393Q598 412 614 443T630 511Q630 545 613 566T541 600T393 614Q370 614 370 613L366 584Q349 446 311 307T243 96L213 25Q205 8 179 -7T132 -22Q125 -22 120 -18T117 -8Q117 -5 130 26T163 113T205 239T246 408T274 606V614Q273 614 259 613T231 609T198 602T163 588Q131 572 113 518Q102 502 80 490T37 475Z"></path></g></g><g data-mml-node="mo" transform="translate(848,0)"><path data-c="28" d="M94 250Q94 319 104 381T127 488T164 576T202 643T244 695T277 729T302 750H315H319Q333 750 333 741Q333 738 316 720T275 667T226 581T184 443T167 250T184 58T225 -81T274 -167T316 -220T333 -241Q333 -250 318 -250H315H302L274 -226Q180 -141 137 -14T94 250Z"></path></g><g data-mml-node="mi" transform="translate(1237,0)"><path data-c="1D437" d="M287 628Q287 635 230 637Q207 637 200 638T193 647Q193 655 197 667T204 682Q206 683 403 683Q570 682 590 682T630 676Q702 659 752 597T803 431Q803 275 696 151T444 3L430 1L236 0H125H72Q48 0 41 2T33 11Q33 13 36 25Q40 41 44 43T67 46Q94 46 127 49Q141 52 146 61Q149 65 218 339T287 628ZM703 469Q703 507 692 537T666 584T629 613T590 629T555 636Q553 636 541 636T512 636T479 637H436Q392 637 386 627Q384 623 313 339T242 52Q242 48 253 48T330 47Q335 47 349 47T373 46Q499 46 581 128Q617 164 640 212T683 339T703 469Z"></path></g><g data-mml-node="mo" transform="translate(2065,0)"><path data-c="29" d="M60 749L64 750Q69 750 74 750H86L114 726Q208 641 251 514T294 250Q294 182 284 119T261 12T224 -76T186 -143T145 -194T113 -227T90 -246Q87 -249 86 -250H74Q66 -250 63 -250T58 -247T55 -238Q56 -237 66 -225Q221 -64 221 250T66 725Q56 737 55 738Q55 746 60 749Z"></path></g><g data-mml-node="mo" transform="translate(2731.8,0)"><path data-c="3D" d="M56 347Q56 360 70 367H707Q722 359 722 347Q722 336 708 328L390 327H72Q56 332 56 347ZM56 153Q56 168 72 173H708Q722 163 722 153Q722 140 707 133H70Q56 140 56 153Z"></path></g><g data-mml-node="munder" transform="translate(3787.6,0)"><g data-mml-node="mo" transform="translate(6.8,0)"><path data-c="2A01" d="M668 944Q697 949 744 949Q803 949 814 948Q916 937 1006 902T1154 826T1262 730T1336 638T1380 563Q1454 415 1454 250Q1454 113 1402 -14T1258 -238T1036 -391T755 -449Q608 -449 477 -392T255 -240T110 -16T56 250Q56 387 105 510T239 723T434 871T668 944ZM706 299V850H704Q519 832 386 725T198 476Q181 433 169 379T156 300Q156 299 431 299H706ZM1116 732Q1054 778 982 807T871 842T810 849L804 850V299H1079Q1354 299 1354 300Q1354 311 1352 329T1336 402T1299 506T1228 620T1116 732ZM706 -350V201H431Q156 201 156 200Q156 189 158 171T174 98T211 -6T282 -120T395 -232Q428 -257 464 -277T527 -308T587 -328T636 -339T678 -346T706 -350ZM1354 200Q1354 201 1079 201H804V-350Q808 -349 838 -345T887 -338T940 -323T1010 -295Q1038 -282 1067 -265T1144 -208T1229 -121T1301 0T1349 158Q1354 188 1354 200Z"></path></g><g data-mml-node="TeXAtom" transform="translate(0,-1086.9) scale(0.707)" data-mjx-texclass="ORD"><g data-mml-node="mi"><path data-c="1D45A" d="M21 287Q22 293 24 303T36 341T56 388T88 425T132 442T175 435T205 417T221 395T229 376L231 369Q231 367 232 367L243 378Q303 442 384 442Q401 442 415 440T441 433T460 423T475 411T485 398T493 385T497 373T500 364T502 357L510 367Q573 442 659 442Q713 442 746 415T780 336Q780 285 742 178T704 50Q705 36 709 31T724 26Q752 26 776 56T815 138Q818 149 821 151T837 153Q857 153 857 145Q857 144 853 130Q845 101 831 73T785 17T716 -10Q669 -10 648 17T627 73Q627 92 663 193T700 345Q700 404 656 404H651Q565 404 506 303L499 291L466 157Q433 26 428 16Q415 -11 385 -11Q372 -11 364 -4T353 8T350 18Q350 29 384 161L420 307Q423 322 423 345Q423 404 379 404H374Q288 404 229 303L222 291L189 157Q156 26 151 16Q138 -11 108 -11Q95 -11 87 -5T76 7T74 17Q74 30 112 181Q151 335 151 342Q154 357 154 369Q154 405 129 405Q107 405 92 377T69 316T57 280Q55 278 41 278H27Q21 284 21 287Z"></path></g><g data-mml-node="mo" transform="translate(878,0)"><path data-c="2265" d="M83 616Q83 624 89 630T99 636Q107 636 253 568T543 431T687 361Q694 356 694 346T687 331Q685 329 395 192L107 56H101Q83 58 83 76Q83 77 83 79Q82 86 98 95Q117 105 248 167Q326 204 378 228L626 346L360 472Q291 505 200 548Q112 589 98 597T83 616ZM84 -118Q84 -108 99 -98H678Q694 -104 694 -118Q694 -130 679 -138H98Q84 -131 84 -118Z"></path></g><g data-mml-node="mn" transform="translate(1656,0)"><path data-c="30" d="M96 585Q152 666 249 666Q297 666 345 640T423 548Q460 465 460 320Q460 165 417 83Q397 41 362 16T301 -15T250 -22Q224 -22 198 -16T137 16T82 83Q39 165 39 320Q39 494 96 585ZM321 597Q291 629 250 629Q208 629 178 597Q153 571 145 525T137 333Q137 175 145 125T181 46Q209 16 250 16Q290 16 318 46Q347 76 354 130T362 333Q362 478 354 524T321 597Z"></path></g></g></g><g data-mml-node="msub" transform="translate(5478.7,0)"><g data-mml-node="mi"><path data-c="1D453" d="M118 -162Q120 -162 124 -164T135 -167T147 -168Q160 -168 171 -155T187 -126Q197 -99 221 27T267 267T289 382V385H242Q195 385 192 387Q188 390 188 397L195 425Q197 430 203 430T250 431Q298 431 298 432Q298 434 307 482T319 540Q356 705 465 705Q502 703 526 683T550 630Q550 594 529 578T487 561Q443 561 443 603Q443 622 454 636T478 657L487 662Q471 668 457 668Q445 668 434 658T419 630Q412 601 403 552T387 469T380 433Q380 431 435 431Q480 431 487 430T498 424Q499 420 496 407T491 391Q489 386 482 386T428 385H372L349 263Q301 15 282 -47Q255 -132 212 -173Q175 -205 139 -205Q107 -205 81 -186T55 -132Q55 -95 76 -78T118 -61Q162 -61 162 -103Q162 -122 151 -136T127 -157L118 -162Z"></path></g><g data-mml-node="mo" transform="translate(523,-150) scale(0.707)"><path data-c="2217" d="M229 286Q216 420 216 436Q216 454 240 464Q241 464 245 464T251 465Q263 464 273 456T283 436Q283 419 277 356T270 286L328 328Q384 369 389 372T399 375Q412 375 423 365T435 338Q435 325 425 315Q420 312 357 282T289 250L355 219L425 184Q434 175 434 161Q434 146 425 136T401 125Q393 125 383 131T328 171L270 213Q283 79 283 63Q283 53 276 44T250 35Q231 35 224 44T216 63Q216 80 222 143T229 213L171 171Q115 130 110 127Q106 124 100 124Q87 124 76 134T64 161Q64 166 64 169T67 175T72 181T81 188T94 195T113 204T138 215T170 230T210 250L74 315Q65 324 65 338Q65 353 74 363T98 374Q106 374 116 368T171 328L229 286Z"></path></g></g><g data-mml-node="msub" transform="translate(6405.3,0)"><g data-mml-node="TeXAtom" data-mjx-texclass="ORD"><g data-mml-node="mi"><path data-c="4F" d="M308 428Q289 428 289 438Q289 457 318 508T378 593Q417 638 475 671T599 705Q688 705 732 643T777 483Q777 380 733 285T620 123T464 18T293 -22Q188 -22 123 51T58 245Q58 327 87 403T159 533T249 626T333 685T388 705Q404 705 404 693Q404 674 363 649Q333 632 304 606T239 537T181 429T158 290Q158 179 214 114T364 48Q489 48 583 165T677 438Q677 473 670 505T648 568T601 617T528 636Q518 636 513 635Q486 629 460 600T419 544T392 490Q383 470 372 459Q341 430 308 428Z"></path></g></g><g data-mml-node="mi" transform="translate(829,-150) scale(0.707)"><path data-c="1D44B" d="M42 0H40Q26 0 26 11Q26 15 29 27Q33 41 36 43T55 46Q141 49 190 98Q200 108 306 224T411 342Q302 620 297 625Q288 636 234 637H206Q200 643 200 645T202 664Q206 677 212 683H226Q260 681 347 681Q380 681 408 681T453 682T473 682Q490 682 490 671Q490 670 488 658Q484 643 481 640T465 637Q434 634 411 620L488 426L541 485Q646 598 646 610Q646 628 622 635Q617 635 609 637Q594 637 594 648Q594 650 596 664Q600 677 606 683H618Q619 683 643 683T697 681T738 680Q828 680 837 683H845Q852 676 852 672Q850 647 840 637H824Q790 636 763 628T722 611T698 593L687 584Q687 585 592 480L505 384Q505 383 536 304T601 142T638 56Q648 47 699 46Q734 46 734 37Q734 35 732 23Q728 7 725 4T711 1Q708 1 678 1T589 2Q528 2 496 2T461 1Q444 1 444 10Q444 11 446 25Q448 35 450 39T455 44T464 46T480 47T506 54Q523 62 523 64Q522 64 476 181L429 299Q241 95 236 84Q232 76 232 72Q232 53 261 47Q262 47 267 47T273 46Q276 46 277 46T280 45T283 42T284 35Q284 26 282 19Q279 6 276 4T261 1Q258 1 243 1T201 2T142 2Q64 2 42 0Z"></path></g></g><g data-mml-node="mo" transform="translate(7886.8,0)"><path data-c="28" d="M94 250Q94 319 104 381T127 488T164 576T202 643T244 695T277 729T302 750H315H319Q333 750 333 741Q333 738 316 720T275 667T226 581T184 443T167 250T184 58T225 -81T274 -167T316 -220T333 -241Q333 -250 318 -250H315H302L274 -226Q180 -141 137 -14T94 250Z"></path></g><g data-mml-node="mi" transform="translate(8275.8,0)"><path data-c="1D45A" d="M21 287Q22 293 24 303T36 341T56 388T88 425T132 442T175 435T205 417T221 395T229 376L231 369Q231 367 232 367L243 378Q303 442 384 442Q401 442 415 440T441 433T460 423T475 411T485 398T493 385T497 373T500 364T502 357L510 367Q573 442 659 442Q713 442 746 415T780 336Q780 285 742 178T704 50Q705 36 709 31T724 26Q752 26 776 56T815 138Q818 149 821 151T837 153Q857 153 857 145Q857 144 853 130Q845 101 831 73T785 17T716 -10Q669 -10 648 17T627 73Q627 92 663 193T700 345Q700 404 656 404H651Q565 404 506 303L499 291L466 157Q433 26 428 16Q415 -11 385 -11Q372 -11 364 -4T353 8T350 18Q350 29 384 161L420 307Q423 322 423 345Q423 404 379 404H374Q288 404 229 303L222 291L189 157Q156 26 151 16Q138 -11 108 -11Q95 -11 87 -5T76 7T74 17Q74 30 112 181Q151 335 151 342Q154 357 154 369Q154 405 129 405Q107 405 92 377T69 316T57 280Q55 278 41 278H27Q21 284 21 287Z"></path></g><g data-mml-node="mi" transform="translate(9153.8,0)"><path data-c="1D437" d="M287 628Q287 635 230 637Q207 637 200 638T193 647Q193 655 197 667T204 682Q206 683 403 683Q570 682 590 682T630 676Q702 659 752 597T803 431Q803 275 696 151T444 3L430 1L236 0H125H72Q48 0 41 2T33 11Q33 13 36 25Q40 41 44 43T67 46Q94 46 127 49Q141 52 146 61Q149 65 218 339T287 628ZM703 469Q703 507 692 537T666 584T629 613T590 629T555 636Q553 636 541 636T512 636T479 637H436Q392 637 386 627Q384 623 313 339T242 52Q242 48 253 48T330 47Q335 47 349 47T373 46Q499 46 581 128Q617 164 640 212T683 339T703 469Z"></path></g><g data-mml-node="mo" transform="translate(9981.8,0)"><path data-c="29" d="M60 749L64 750Q69 750 74 750H86L114 726Q208 641 251 514T294 250Q294 182 284 119T261 12T224 -76T186 -143T145 -194T113 -227T90 -246Q87 -249 86 -250H74Q66 -250 63 -250T58 -247T55 -238Q56 -237 66 -225Q221 -64 221 250T66 725Q56 737 55 738Q55 746 60 749Z"></path></g></g></g></svg><text x="88" y="55" font-size="28" fill="#e4cf9c" font-family="Kaiti SC, KaiTi, cursive">相对有限生成的角色</text></svg>